<svg id="Calque_1" data-name="Calque 1" xmlns="http://www.w3.org/2000/svg" viewBox="0 0 217.46 83.92"><defs><style>.cls-1{fill:none}.cls-2{clip-path:url(#clip-path)}.cls-3{fill:#1d1d1b}.cls-4{fill:#82ccd9}.cls-5{fill:#62c0ba}.cls-6{fill:#71c5c8}.cls-7{fill:#60bfba}.cls-8{fill:#75c8d3}.cls-9{fill:#007fc4}.cls-10{fill:#99d0bd}.cls-11{fill:#88d0ea}.cls-12{fill:#75c19b}.cls-13{fill:#009fe3}.cls-14{fill:#7dcce2}.cls-15{fill:#0079bf}.cls-16{fill:#328ecd}.cls-17{fill:#67c6e0}.cls-18{fill:#91d2e7}.cls-19{fill:#00aea1}.cls-20{fill:#49b7e9}.cls-21{fill:#b9e2fa}.cls-22{fill:#0088c0}.cls-23{fill:#79c8ce}.cls-24{fill:#bbded1}.cls-25{fill:#8dd1e7}.cls-26{fill:#0065b0}.cls-27{fill:#46bdce}.cls-28{fill:#007ac0}.cls-29{fill:#23b3ac}.cls-30{fill:#66c7ea}.cls-31{fill:#6cc7e1}.cls-32{fill:#5dbbb5}.cls-33{fill:#40b9bd}.cls-34{fill:#008774}.cls-35{fill:#6f62a8}.cls-36{fill:#00ade7}.cls-37{fill:#00a78c}.cls-38{fill:#00abab}.cls-39{fill:#85cfe9}.cls-40{fill:#60c0c3}.cls-41{fill:#1bb3b1}.cls-42{fill:#70ba71}.cls-43{fill:#51b9a3}.cls-44{fill:#99cead}.cls-45{fill:#a5d8de}.cls-46{fill:#76c6c1}.cls-47{fill:#58bec1}.cls-48{fill:#8abce7}.cls-49{fill:#0064af}.cls-50{fill:#84c2eb}.cls-51{fill:#8ecec9}.cls-52{fill:#6bc4c8}.cls-53{fill:#86d1f4}.cls-54{fill:#81c9c4}.cls-55{fill:#97d5f1}.cls-56{fill:#58bdba}.cls-57{fill:#36b6ac}.cls-58{fill:#3a67b0}.cls-59{fill:#cee7e5}.cls-60{fill:#82c9bf}.cls-61{fill:#d3e9e8}.cls-62{fill:#5cbfbc}.cls-63{fill:#7dcce4}.cls-64{fill:#0080c6}.cls-65{fill:#d0e8e6}.cls-66{fill:#c7e4e1}.cls-67{fill:#c9e5e2}.cls-68{fill:#5ac1d1}.cls-69{fill:#5abcaf}.cls-70{fill:#08b1c5}.cls-71{fill:#42b9b6}.cls-72{fill:#008153}.cls-73{fill:#00aca5}</style><clipPath id="clip-path"><path class="cls-1" d="M.43-.96h217.02v94.75H.43z"/></clipPath></defs><title>logotype</title><g class="cls-2"><path class="cls-3" d="M70.06 21.91h2.77v1.77a6.72 6.72 0 0 1-2.27.4 3.5 3.5 0 1 1 .17-7 6.65 6.65 0 0 1 2.6.65l.61-1.5a7.07 7.07 0 0 0-3.51-.81 5.25 5.25 0 0 0-5.37 5.14c0 2.95 2.24 5.15 5.61 5.15a6.78 6.78 0 0 0 3.85-1.13v-4.24h-4.46zm13.05 0h2.77v1.77a6.72 6.72 0 0 1-2.27.4 3.5 3.5 0 1 1 .17-7 6.65 6.65 0 0 1 2.6.65l.61-1.5a7.07 7.07 0 0 0-3.51-.81 5.25 5.25 0 0 0-5.37 5.14c0 2.95 2.24 5.15 5.61 5.15a6.78 6.78 0 0 0 3.85-1.13v-4.24h-4.46zm43.52-.43v2.39c0 .78-.38 1.11-1 1.11s-1-.33-1-1.1v-2.4h-.72v2.39a1.55 1.55 0 0 0 1.69 1.76 1.57 1.57 0 0 0 1.71-1.76v-2.39zm-6.84 0h-1.54v4.08h1.54a2.07 2.07 0 0 0 2.18-2 2 2 0 0 0-2.18-2m0 3.42H119v-2.84h.82a1.38 1.38 0 1 1 0 2.76m-13.7-9.46a5.17 5.17 0 0 0-5.31 5.14 5.32 5.32 0 1 0 5.31-5.14m0 8.74a3.46 3.46 0 0 1-3.43-3.57 3.43 3.43 0 1 1 6.85 0 3.45 3.45 0 0 1-3.43 3.57m-12.52-8.57h-1.76v9.96h6.47v-1.62h-4.71v-8.34zM57.76 47.33a10.34 10.34 0 0 1-5.22-1.52l1-2.54a8.09 8.09 0 0 0 4.34 1.43c1.88 0 2.75-.93 2.75-2S60 41 57.13 40C54 38.84 53 37.36 53 35.46c0-2.41 2-4.63 5.36-4.63a9.37 9.37 0 0 1 4.4 1.09l-.91 2.5a8 8 0 0 0-3.57-1.07c-1.68 0-2.45.93-2.45 2s.86 1.66 3.11 2.48c3.56 1.39 4.59 2.79 4.59 4.88 0 2.84-2.16 4.59-5.72 4.59m21.39-4.05h-7.63v3.81h-2.84V38c0-4.9 2.45-7.13 6.61-7.13S82 33 82 38v9.1h-2.8zM71.57 41h7.63v-3c0-3.41-1.59-4.56-3.82-4.56s-3.81 1.29-3.81 4.56zm16.89-9.9h2.82v15.96h-2.82zm9.45-.09h.88l9.88 10.28V31.1h2.81v16.07h-.75l-10.01-10.01v9.9h-2.81V31.01zm18.18.09h13.42v2.59h-5.24v13.37h-2.84V33.69h-5.34V31.1zM67 72.09l-4-3.56a10.59 10.59 0 0 1-2.27.27 8.17 8.17 0 0 1-8.52-8.24 8.29 8.29 0 0 1 8.52-8.24c4.95 0 8.54 3.47 8.54 8.24a7.93 7.93 0 0 1-3.68 6.81l3.06 2.77zm-6.2-5.77a5.67 5.67 0 0 0 5.49-5.72 5.5 5.5 0 1 0-11 0 5.55 5.55 0 0 0 5.5 5.72m13.9-13.73h2.82v9.36c0 3 1.39 4.31 3.79 4.31s3.88-1.27 3.88-4.34v-9.33H88v9.36c0 4.77-2.7 6.9-6.7 6.9s-6.61-2.13-6.61-6.9zm19.73 0h10.38v2.58h-7.56v4.48h6.85v2.5h-6.85v3.81h7.56v2.59H94.42V52.59zm16.37-.1h.89l9.87 10.29V52.59h2.82v16.07h-.75l-10.01-10.01v9.9h-2.82V52.49zm18.19.1h13.42v2.58h-5.25v13.38h-2.84V55.17h-5.33v-2.58zm18.02 0h2.82v15.96H147zm9.45-.1h.89l9.87 10.29V52.59h2.82v16.07h-.75l-10.02-10.01v9.9h-2.81V52.49zm27.68-.18c4.95 0 8.54 3.47 8.54 8.24a8.53 8.53 0 0 1-17.05 0 8.29 8.29 0 0 1 8.51-8.24m0 14a5.52 5.52 0 0 0 5.49-5.72 5.5 5.5 0 1 0-11 0 5.55 5.55 0 0 0 5.49 5.72m14.14-13.72h2.82v15.96h-2.82zm13.48 16.23a10.34 10.34 0 0 1-5.22-1.52l1-2.54a8.09 8.09 0 0 0 4.34 1.43c1.89 0 2.75-.93 2.75-2s-.59-1.7-3.47-2.77c-3.11-1.13-4.18-2.61-4.18-4.52 0-2.41 2-4.63 5.36-4.63a9.38 9.38 0 0 1 4.41 1.09l-.91 2.5a8 8 0 0 0-3.56-1.07c-1.68 0-2.45.93-2.45 2s.86 1.66 3.11 2.48c3.57 1.39 4.59 2.79 4.59 4.88 0 2.84-2.16 4.59-5.72 4.59"/><path class="cls-4" d="M34.32 25.18a1.81 1.81 0 1 0-.66 2.47 1.81 1.81 0 0 0 .66-2.47"/><path class="cls-5" d="M23.63 23.71a2.3 2.3 0 1 0 3.26 0 2.3 2.3 0 0 0-3.26 0"/><path class="cls-6" d="M30.21 27.74a1.81 1.81 0 1 0 0 2.56 1.81 1.81 0 0 0 0-2.56"/><path class="cls-7" d="M32.94 31.07a1.38 1.38 0 1 0 0 2 1.38 1.38 0 0 0 0-2"/><path class="cls-8" d="M35.2 43.89a.76.76 0 1 0-.54.93.76.76 0 0 0 .54-.93"/><path class="cls-9" d="M29.54 14.58a3 3 0 1 0-1.09 4.06 3 3 0 0 0 1.09-4.06"/><path class="cls-10" d="M23.49 31.39a2.3 2.3 0 1 0-3.15.84 2.3 2.3 0 0 0 3.15-.84"/><path class="cls-8" d="M35.2 40.25a.76.76 0 1 0-.93.54.76.76 0 0 0 .93-.54m.7-1.69a.76.76 0 1 0-1 .28.76.76 0 0 0 1-.28"/><path class="cls-11" d="M37.71 39.61a.51.51 0 1 0-.69.19.51.51 0 0 0 .69-.19"/><path class="cls-12" d="M26.9 31.28a1.81 1.81 0 1 0 .66 2.47 1.81 1.81 0 0 0-.66-2.47"/><path class="cls-13" d="M12.47 25a3.73 3.73 0 1 0-5.1 1.37 3.73 3.73 0 0 0 5.1-1.37"/><path class="cls-14" d="M22.85 18.74a3 3 0 1 0 0 4.2 3 3 0 0 0 0-4.2"/><path class="cls-15" d="M12.47 59.12a3.73 3.73 0 1 0-1.37 5.1 3.73 3.73 0 0 0 1.37-5.1"/><path class="cls-16" d="M17.46 59.66a3 3 0 1 0-4.06-1.09 3 3 0 0 0 4.06 1.09"/><path class="cls-17" d="M38.25 79.89A3.73 3.73 0 1 0 42 76.16a3.73 3.73 0 0 0-3.73 3.73"/><path class="cls-18" d="M28.59 77.64A3.73 3.73 0 1 0 33.17 75a3.73 3.73 0 0 0-4.57 2.64"/><path class="cls-19" d="M26.31 76.69a3.73 3.73 0 1 0-5.1 1.37 3.74 3.74 0 0 0 5.1-1.37"/><path class="cls-20" d="M9.06 50.89a3.73 3.73 0 1 0-2.64 4.57 3.74 3.74 0 0 0 2.64-4.57"/><path class="cls-21" d="M7.9 42.07a3.73 3.73 0 1 0-3.73 3.73 3.73 3.73 0 0 0 3.73-3.73"/><path class="cls-22" d="M15.85 35.07a3 3 0 1 0-3.64 2.1 3 3 0 0 0 3.64-2.1"/><path class="cls-23" d="M9.06 33.25a3.73 3.73 0 1 0-4.57 2.64 3.73 3.73 0 0 0 4.57-2.64"/><path class="cls-24" d="M21.35 36.54a2.3 2.3 0 1 0-2.82 1.63 2.3 2.3 0 0 0 2.82-1.63"/><path class="cls-25" d="M14.49 29.63a3 3 0 1 0-1.09-4.06 3 3 0 0 0 1.09 4.06"/><path class="cls-26" d="M16.9 48.79A2.3 2.3 0 1 0 18.53 46a2.3 2.3 0 0 0-1.63 2.82"/><path class="cls-27" d="M31.85 36.22a1 1 0 1 0 1.41-.38 1 1 0 0 0-1.41.38"/><path class="cls-28" d="M22.85 61.21a3 3 0 1 0 0 4.2 3 3 0 0 0 0-4.2"/><path class="cls-29" d="M35.95 48.11a.76.76 0 1 0 0-1.07.76.76 0 0 0 0 1.07"/><path class="cls-30" d="M24.4 66.6a3 3 0 1 0 4.06-1.09 3 3 0 0 0-4.06 1.09"/><path class="cls-31" d="M26.88 57.18a2.3 2.3 0 1 0 0 3.26 2.3 2.3 0 0 0 0-3.26"/><path class="cls-32" d="M30.21 53.85a1.81 1.81 0 1 0 0 2.56 1.81 1.81 0 0 0 0-2.56"/><path class="cls-33" d="M32.23 46.51a1 1 0 1 0 1.41.38 1 1 0 0 0-1.41-.38"/><path class="cls-34" d="M17.89 12.69a3.73 3.73 0 1 0 0 5.28 3.73 3.73 0 0 0 0-5.28"/><path class="cls-27" d="M30.28 42.07a1 1 0 1 0 1-1 1 1 0 0 0-1 1"/><path class="cls-35" d="M24.95 12.55a3.73 3.73 0 1 0-5.1-1.37 3.73 3.73 0 0 0 5.1 1.37"/><path class="cls-17" d="M39 72.11a3 3 0 1 0 3-3 3 3 0 0 0-3 3"/><path class="cls-20" d="M23.49 52.75a2.3 2.3 0 1 0-.84 3.15 2.3 2.3 0 0 0 .84-3.15"/><path class="cls-8" d="M35.95 37.1a.76.76 0 1 0 0-1.07.76.76 0 0 0 0 1.07"/><path class="cls-36" d="M9 42.07a3 3 0 1 0 3-3 3 3 0 0 0-3 3"/><path class="cls-37" d="M20.62 42.07a2.3 2.3 0 1 0-2.3 2.3 2.3 2.3 0 0 0 2.3-2.3"/><path class="cls-27" d="M32.68 39.58a1 1 0 1 0-1.27.73 1 1 0 0 0 1.27-.73"/><path class="cls-38" d="M27 46.1a1.38 1.38 0 1 0 1-1.69 1.38 1.38 0 0 0-1 1.69"/><path class="cls-36" d="M22.41 47.32a1.81 1.81 0 1 0 1.28-2.21 1.81 1.81 0 0 0-1.28 2.21"/><path class="cls-39" d="M25.33 42.07a1.81 1.81 0 1 0-1.81 1.81 1.81 1.81 0 0 0 1.81-1.81"/><path class="cls-33" d="M33.71 50.35a1 1 0 1 0 0-1.46 1 1 0 0 0 0 1.46"/><path class="cls-40" d="M30.68 45.1a1 1 0 1 0 .73-1.27 1 1 0 0 0-.73 1.27"/><path class="cls-41" d="M29 48a1.38 1.38 0 1 0 1.89.51A1.38 1.38 0 0 0 29 48"/><path class="cls-42" d="M24.62 35.55a1.81 1.81 0 1 0 1.28 2.21 1.81 1.81 0 0 0-1.28-2.21"/><path class="cls-43" d="M32.94 51.12a1.38 1.38 0 1 0 0 2 1.38 1.38 0 0 0 0-2"/><path class="cls-44" d="M25.1 49.74a1.81 1.81 0 1 0 2.47.66 1.81 1.81 0 0 0-2.47-.66"/><path class="cls-11" d="M41.07 36.69a.51.51 0 1 0-.36.62.51.51 0 0 0 .36-.62m-2.07.23a.51.51 0 1 0 .69.19.51.51 0 0 0-.69-.19m2.48-.29a.51.51 0 1 0 .51-.51.51.51 0 0 0-.51.51m-3.7 1.24a.51.51 0 1 0 .71 0 .5.5 0 0 0-.71 0"/><path class="cls-8" d="M41.23 34.29a.76.76 0 1 0 .76-.76.76.76 0 0 0-.76.76m-3.51.38a.76.76 0 1 0 1 .28.76.76 0 0 0-1-.28m2.98-.31a.76.76 0 1 0-.54.93.76.76 0 0 0 .54-.93"/><path class="cls-45" d="M38.65 40.15a.32.32 0 1 0 .44-.12.32.32 0 0 0-.44.12"/><path class="cls-46" d="M36.13 31.93a1 1 0 1 0 1.41.38 1 1 0 0 0-1.41-.38"/><path class="cls-11" d="M36.86 40.18a.51.51 0 1 0 .36.62.51.51 0 0 0-.36-.62"/><path class="cls-47" d="M41.39 38.58a.32.32 0 1 0-.23.4.32.32 0 0 0 .23-.4m.27-.04a.32.32 0 1 0 .32-.32.32.32 0 0 0-.32.32m-1.16.31a.32.32 0 1 0-.12.44.32.32 0 0 0 .12-.44"/><path class="cls-46" d="M40.23 31.5a1 1 0 1 0-.73 1.27 1 1 0 0 0 .73-1.27"/><path class="cls-26" d="M37.08 12.3A3 3 0 1 0 35 15.93a3 3 0 0 0 2.1-3.64"/><path class="cls-48" d="M39.69 18.41A2.3 2.3 0 1 0 42 16.1a2.3 2.3 0 0 0-2.3 2.3"/><path class="cls-45" d="M38.27 41.08a.32.32 0 1 0 .4-.23.32.32 0 0 0-.4.23"/><path class="cls-49" d="M38.25 4.25A3.73 3.73 0 1 0 42 .52a3.73 3.73 0 0 0-3.73 3.73"/><path class="cls-16" d="M39 12a3 3 0 1 0 3-3 3 3 0 0 0-3 3"/><path class="cls-50" d="M29 19.58a2.3 2.3 0 1 0 3.14.84 2.3 2.3 0 0 0-3.14-.84"/><path class="cls-51" d="M39.65 28a1.38 1.38 0 1 0-1 1.69 1.38 1.38 0 0 0 1-1.69"/><path class="cls-52" d="M34.21 28.6a1.38 1.38 0 1 0 1.89.51 1.38 1.38 0 0 0-1.89-.51"/><path class="cls-46" d="M41 31.4a1 1 0 1 0 1-1 1 1 0 0 0-1 1"/><path class="cls-53" d="M40.18 23.61A1.81 1.81 0 1 0 42 21.8a1.81 1.81 0 0 0-1.81 1.81"/><path class="cls-54" d="M40.61 27.89A1.38 1.38 0 1 0 42 26.51a1.38 1.38 0 0 0-1.38 1.38"/><path class="cls-55" d="M39 23.77A1.81 1.81 0 1 0 37.68 26 1.81 1.81 0 0 0 39 23.77"/><path class="cls-56" d="M41 52.75a1 1 0 1 0 1-1 1 1 0 0 0-1 1"/><path class="cls-57" d="M37.44 48.44a.76.76 0 1 0 1-.28.76.76 0 0 0-1 .28"/><path class="cls-58" d="M31.35 70.31a3 3 0 1 0 3.65-2.1 3 3 0 0 0-3.64 2.1"/><path class="cls-59" d="M41.23 49.86a.76.76 0 1 0 .77-.76.76.76 0 0 0-.76.76"/><path class="cls-60" d="M39.24 49.4a.76.76 0 1 0 .93-.53.76.76 0 0 0-.93.53"/><path class="cls-33" d="M37.17 50.42a1 1 0 1 0 .38 1.41 1 1 0 0 0-.38-1.41"/><path class="cls-61" d="M37 55.41a1.38 1.38 0 1 0 1.69-1 1.38 1.38 0 0 0-1.69 1"/><path class="cls-62" d="M38.23 52.11a1 1 0 1 0 1.27-.73 1 1 0 0 0-1.27.73"/><path class="cls-63" d="M33.64 64.34a2.3 2.3 0 1 0 2.82-1.63 2.3 2.3 0 0 0-2.82 1.63"/><path class="cls-8" d="M33.45 42.07a.76.76 0 1 0 .76-.76.76.76 0 0 0-.76.76"/><path class="cls-64" d="M31.31 60.57a2.3 2.3 0 1 0 .84 3.15 2.3 2.3 0 0 0-.84-3.15"/><path class="cls-65" d="M40.61 56.25A1.38 1.38 0 1 0 42 54.87a1.38 1.38 0 0 0-1.38 1.38"/><path class="cls-66" d="M35.46 59.44a1.81 1.81 0 1 0 2.21-1.28 1.81 1.81 0 0 0-2.21 1.28"/><path class="cls-67" d="M40.18 60.54A1.81 1.81 0 1 0 42 58.73a1.81 1.81 0 0 0-1.81 1.81"/><path class="cls-45" d="M38.27 43.07a.32.32 0 1 0 .23-.4.32.32 0 0 0-.23.4"/><path class="cls-11" d="M36.6 43a.51.51 0 1 0 .62.36.51.51 0 0 0-.62-.36"/><path class="cls-68" d="M41.48 47.52A.51.51 0 1 0 42 47a.51.51 0 0 0-.51.51"/><path class="cls-45" d="M38.13 42.07a.32.32 0 1 0 .32-.32.32.32 0 0 0-.32.32"/><path class="cls-69" d="M39.26 44.8a.32.32 0 1 0 0-.46.32.32 0 0 0 0 .46"/><path class="cls-11" d="M36 42.07a.51.51 0 1 0 .51-.51.51.51 0 0 0-.51.51"/><path class="cls-70" d="M38.83 46.53a.51.51 0 1 0 .69-.18.51.51 0 0 0-.69.18"/><path class="cls-71" d="M39.94 45a.32.32 0 1 0 .44-.12.32.32 0 0 0-.44.12"/><path class="cls-72" d="M40.76 45.4a.32.32 0 1 0 .4-.23.32.32 0 0 0-.4.23"/><path class="cls-73" d="M41.66 45.6a.32.32 0 1 0 .32-.32.32.32 0 0 0-.32.32"/><path class="cls-3" d="M60.1 23.19h-4.76v2.38h-1.77v-5.68c0-3.06 1.53-4.45 4.12-4.45s4.18 1.39 4.18 4.45v5.68H60.1zm-4.76-1.39h4.76v-1.9c0-2.12-1-2.85-2.38-2.85s-2.38.82-2.38 2.83z"/></g></svg>