<svg id="Calque_1" data-name="Calque 1" xmlns="http://www.w3.org/2000/svg" viewBox="0 0 703.21 629.1"><defs><style>.cls-1{fill:#68b495;}.cls-2{fill:#6daddc;}.cls-3{fill:none;stroke:#514d4a;stroke-miterlimit:10;stroke-width:5px;}.cls-4{fill:#fde451;}.cls-5{fill:#fdc915;}.cls-6{fill:#514d4a;}.cls-7{fill:#fff;}.cls-8{fill:#177e53;}.cls-9{fill:#1c6bb3;}</style></defs><title>ISSYCOM_logo</title><path class="cls-1" d="M.26,302.92C.1,307,0,311.11,0,315.24,0,488.58,140.52,629.1,313.86,629.1c2.21,0,4.4,0,6.59-.08V302.92Z"/><path class="cls-2" d="M320.45,1.46c-2.19-.05-4.38-.09-6.59-.09C144.65,1.37,6.73,135.29.26,302.92H320.45Z"/><line class="cls-3" x1="360.47" y1="1.37" x2="360.47" y2="140.71"/><path class="cls-3" d="M473.42,23.39C455.42,3,441.64,2.3,426.93,2.77c-20,.64-35.06,19.54-34.39,34.92s6.86,24.47,38.59,31c31,6.31,44.36,15.68,44.36,35.17v.39c0,21.59-18,35.05-43.84,35.05-14.92,0-26.56-7-37.4-18.35"/><path class="cls-3" d="M582,23.39C564,3,550.24,2.3,535.53,2.77c-20,.64-35.06,19.54-34.39,34.92s6.86,24.47,38.58,31c31,6.31,44.37,15.68,44.37,35.17v.39c0,21.59-18,35.05-43.84,35.05-14.92,0-26.56-7-37.4-18.35"/><path class="cls-3" d="M443,265.26c-9.26,6.46-21.36,10-35.5,10-32.83,0-57.12-26.38-57.12-59.71v-.34c0-32.84,24.34-58.84,57.49-58.84,14.68,0,26,2.34,35.13,8.57"/><path class="cls-3" d="M572.75,216.2v-.38c0-32.64-23.42-59.44-55.58-59.44S462,182.8,462,215.45v.37c0,32.65,23.43,59.45,55.59,59.45S572.75,248.85,572.75,216.2Z"/><path class="cls-3" d="M689.07,276.79V163l-47.21,78.21L594.66,163V276.79"/><line class="cls-3" x1="655.34" y1="71.04" x2="655.34" y2="140.71"/><line class="cls-3" x1="701.12" y1="1.37" x2="655.34" y2="71.04"/><line class="cls-3" x1="609.55" y1="1.37" x2="655.34" y2="71.04"/><path class="cls-4" d="M626.45,302.92C598.76,444.86,473.76,552,323.71,552c-1.09,0-2.17,0-3.26,0V629c170.3-3.51,307.28-142.64,307.28-313.78,0-4.13-.11-8.23-.27-12.32Z"/><path class="cls-5" d="M626.45,302.92h-73c-23.27,119.26-115.23,214-233,241.16V552c1.09,0,2.17,0,3.26,0C473.76,552,598.76,444.86,626.45,302.92Z"/><path class="cls-4" d="M320.45,544.08c117.8-27.21,209.76-121.9,233-241.16h-233Z"/><circle class="cls-6" cx="320.45" cy="302.92" r="35.64" transform="translate(-91.53 145.69) rotate(-22.5)"/><path class="cls-7" d="M320.45,277.79a25.14,25.14,0,1,1-25.13,25.13,25.14,25.14,0,0,1,25.13-25.13m0-21a46.14,46.14,0,1,0,46.14,46.13,46.18,46.18,0,0,0-46.14-46.13Z"/><path class="cls-8" d="M320.45,629V552C200.26,527.09,103,433.61,80.39,302.92l-6.33.25C69.55,464.48,177.41,599.42,320.45,629Z"/><path class="cls-9" d="M.51,303.17H74.06c24.23-122,115.61-219.54,246.39-247.81V49.61c-1.13,0-2.26,0-3.4,0C160.76,49.56,29.36,158,.51,303.17Z"/></svg>