<svg id="Calque_1" data-name="Calque 1" xmlns="http://www.w3.org/2000/svg" viewBox="0 0 600 166"><defs><style>.cls-1{fill:#3fae2a;}.cls-2{fill:#00a8e1;}.cls-3{fill:#00101f;}</style></defs><title>CCPOA-V01-Couleur</title><path class="cls-1" d="M217,75.63c-10.42,0-21.35-5.89-21.35-25.22C195.67,24.92,206.59.9,217,.9Z"/><path class="cls-1" d="M512.4,164.26c-22.66,0-46.4-12.81-46.4-54.82C466,54,489.74,1.84,512.4,1.84Z"/><path class="cls-2" d="M58,91.31c1.09,17.44,11.37,19.46,11.37,33.75,0,4.42-1,7.49-1,11.75a39.41,39.41,0,0,0,4.07,16.48c1.87,3.79,4.78,6.73,5.9,11H89.29c-2.14-11.57-10.42-15-10.42-28,0-3.95,1.11-6.53,1.11-11.29a41.64,41.64,0,0,0-4.41-17.05c-2.65-5-5.6-6.52-7-16.62Z"/><path class="cls-2" d="M300.23,91.31c1.09,17.44,11.37,19.46,11.37,33.75,0,4.42-1,7.49-1,11.75a39.41,39.41,0,0,0,4.07,16.48c1.87,3.79,4.78,6.73,5.9,11H331.5c-2.14-11.57-10.42-15-10.42-28,0-3.95,1.11-6.53,1.11-11.29a41.64,41.64,0,0,0-4.41-17.05c-2.65-5-5.6-6.52-7-16.62Z"/><path class="cls-2" d="M529.39,1.84c2.44,38.83,25.32,43.32,25.32,75.15,0,9.83-2.27,16.67-2.27,26.15,0,12.46,3.9,26.26,9.06,36.69,4.17,8.43,10.64,15,13.14,24.43H599c-4.76-25.75-23.2-33.43-23.2-62.3,0-8.78,2.48-14.54,2.48-25.15s-3.94-26.81-9.82-38S556,24.34,552.83,1.84Z"/><path class="cls-3" d="M70.2,15.31a5.73,5.73,0,0,1,2.46-2.43A7.52,7.52,0,0,1,76,12.13a7.14,7.14,0,0,1,2.49.45,5.75,5.75,0,0,1,2.22,1.53A7.92,7.92,0,0,1,82.34,17a14,14,0,0,1,.61,4.45v8.73a14,14,0,0,1-.61,4.45,7.63,7.63,0,0,1-1.61,2.86A5.85,5.85,0,0,1,78.5,39a7.14,7.14,0,0,1-2.49.45,6.84,6.84,0,0,1-2.83-.58A5.24,5.24,0,0,1,71,37V47.59H66V12.5h3.49ZM78,23.88a20,20,0,0,0-.26-3.57A8.12,8.12,0,0,0,77,18.06,2.61,2.61,0,0,0,76,16.9a3.62,3.62,0,0,0-3,0,2.61,2.61,0,0,0-1.08,1.16,7.1,7.1,0,0,0-.66,2.25A24.68,24.68,0,0,0,71,23.88v3.81a22.5,22.5,0,0,0,.24,3.6A6.75,6.75,0,0,0,72,33.54a2.76,2.76,0,0,0,1.11,1.14,3.37,3.37,0,0,0,2.86,0,2.76,2.76,0,0,0,1.11-1.14,6.75,6.75,0,0,0,.71-2.25,22.52,22.52,0,0,0,.24-3.6Z"/><path class="cls-3" d="M104.22,12.45V38.91h-3.49l-.58-2.7a5.84,5.84,0,0,1-2.43,2.38,7.59,7.59,0,0,1-5.85.29,5.9,5.9,0,0,1-2.28-1.53,8,8,0,0,1-1.67-2.88A13.46,13.46,0,0,1,87.29,30V21.29a13.47,13.47,0,0,1,.63-4.45A8,8,0,0,1,89.59,14a5.93,5.93,0,0,1,2.28-1.53A7.35,7.35,0,0,1,94.38,12a7.24,7.24,0,0,1,3.28.74A5.93,5.93,0,0,1,100.09,15l.63-2.54Zm-12,15.14a19.75,19.75,0,0,0,.26,3.57,8,8,0,0,0,.71,2.25,2.59,2.59,0,0,0,1.08,1.16,3.62,3.62,0,0,0,3,0,2.6,2.6,0,0,0,1.08-1.16A7.1,7.1,0,0,0,99,31.16a24.85,24.85,0,0,0,.21-3.57V23.77a22.52,22.52,0,0,0-.24-3.6,6.75,6.75,0,0,0-.71-2.25,2.76,2.76,0,0,0-1.11-1.14,3.37,3.37,0,0,0-2.86,0,2.76,2.76,0,0,0-1.11,1.14,6.75,6.75,0,0,0-.71,2.25,22.51,22.51,0,0,0-.24,3.6Z"/><path class="cls-3" d="M125.39,12.5V39.17a11.05,11.05,0,0,1-.82,4.26,7.73,7.73,0,0,1-2,2.75,7,7,0,0,1-2.67,1.46,10.77,10.77,0,0,1-3,.42,10.28,10.28,0,0,1-2.59-.34,8,8,0,0,1-2.46-1.11,7.29,7.29,0,0,1-2-2,8,8,0,0,1-1.16-3.18h5.08a2.84,2.84,0,0,0,1.27,1.72,3.89,3.89,0,0,0,1.85.45,3.27,3.27,0,0,0,2.51-1.06q1-1.06,1-4.07v-2a5.42,5.42,0,0,1-2.22,1.93,6.75,6.75,0,0,1-2.86.61,7.12,7.12,0,0,1-2.49-.45A5.85,5.85,0,0,1,110.68,37a7.62,7.62,0,0,1-1.61-2.86,14,14,0,0,1-.61-4.45V12.56h5V27.21a22.5,22.5,0,0,0,.24,3.6,6.75,6.75,0,0,0,.71,2.25,2.76,2.76,0,0,0,1.11,1.14,3.38,3.38,0,0,0,2.86,0,2.76,2.76,0,0,0,1.11-1.14,7.16,7.16,0,0,0,.74-2.25,20.31,20.31,0,0,0,.26-3.6V12.5Z"/><path class="cls-3" d="M134.17,31.34a3.39,3.39,0,0,0,1.16,2.73,3.88,3.88,0,0,0,2.33.77,4,4,0,0,0,2.51-.74,3.05,3.05,0,0,0,1-2.59,3.73,3.73,0,0,0-1.22-3.12A8.35,8.35,0,0,0,136.61,27a12,12,0,0,1-2.46-.71,7.56,7.56,0,0,1-2.22-1.38,6.63,6.63,0,0,1-1.59-2.17,7.09,7.09,0,0,1-.61-3,8.63,8.63,0,0,1,.63-3.47,6.35,6.35,0,0,1,1.75-2.38,7,7,0,0,1,2.57-1.35,11.05,11.05,0,0,1,3.1-.42,9.46,9.46,0,0,1,3,.48A7.29,7.29,0,0,1,143.33,14a7.44,7.44,0,0,1,1.8,2.43,8.49,8.49,0,0,1,.74,3.41v.48h-5v-.42a3.49,3.49,0,0,0-1-2.65,3.19,3.19,0,0,0-2-.74,3.75,3.75,0,0,0-2.22.64,2.53,2.53,0,0,0-.9,2.22,2.76,2.76,0,0,0,.34,1.43,3.3,3.3,0,0,0,.87,1,4.8,4.8,0,0,0,1.14.64,11.85,11.85,0,0,0,1.19.4,13.15,13.15,0,0,1,3.86,1.35,8.49,8.49,0,0,1,2.43,2,6.73,6.73,0,0,1,1.27,2.43,10.19,10.19,0,0,1,.37,2.75,9.14,9.14,0,0,1-.66,3.68,7.1,7.1,0,0,1-1.8,2.51,6.9,6.9,0,0,1-2.67,1.46,11.63,11.63,0,0,1-3.28.45,10,10,0,0,1-3-.48,8,8,0,0,1-2.7-1.45A7.44,7.44,0,0,1,130.1,35a8.2,8.2,0,0,1-.79-3.49v-.74h5Z"/><path class="cls-3" d="M184.07,1.92V39h-3.49l-.63-2.75a5.73,5.73,0,0,1-2.46,2.43,7.53,7.53,0,0,1-3.36.74,7.13,7.13,0,0,1-2.49-.45,5.73,5.73,0,0,1-2.22-1.53,7.88,7.88,0,0,1-1.61-2.88,14,14,0,0,1-.61-4.45V21.34a14,14,0,0,1,.61-4.45A7.9,7.9,0,0,1,169.42,14a5.75,5.75,0,0,1,2.22-1.53,7.13,7.13,0,0,1,2.49-.45,6.83,6.83,0,0,1,2.83.58,5.26,5.26,0,0,1,2.2,1.91V1.92Zm-12,25.72a19.75,19.75,0,0,0,.26,3.57,8,8,0,0,0,.71,2.25,2.6,2.6,0,0,0,1.09,1.16,3.62,3.62,0,0,0,3,0,2.6,2.6,0,0,0,1.08-1.16,7.14,7.14,0,0,0,.66-2.25,24.67,24.67,0,0,0,.21-3.57V23.83a22.51,22.51,0,0,0-.24-3.6,6.73,6.73,0,0,0-.71-2.25A2.76,2.76,0,0,0,177,16.84a3.37,3.37,0,0,0-2.86,0A2.77,2.77,0,0,0,173.07,18a6.76,6.76,0,0,0-.71,2.25,22.52,22.52,0,0,0-.24,3.6Z"/><path class="cls-3" d="M195.19,1.92v5.4l-2,5.45h-2.06l1-5.45h-2.33V1.92Z"/><path class="cls-3" d="M217,64.37a9.2,9.2,0,0,0,3.75-.78A7.65,7.65,0,0,0,223.84,61a13.36,13.36,0,0,0,2-4.59,27.89,27.89,0,0,0,.73-6.88V26.85a27.89,27.89,0,0,0-.73-6.88,13.38,13.38,0,0,0-2-4.59,7.67,7.67,0,0,0-3.08-2.55,9.2,9.2,0,0,0-3.75-.78V.9a25.41,25.41,0,0,1,7.66,1.2,17.62,17.62,0,0,1,6.88,4.12,21.46,21.46,0,0,1,5,7.76,33.09,33.09,0,0,1,1.93,12.14V50.41a33.08,33.08,0,0,1-1.93,12.14,21.44,21.44,0,0,1-5,7.76,17.58,17.58,0,0,1-6.88,4.12,25.4,25.4,0,0,1-7.66,1.2Z"/><path class="cls-3" d="M268.88,1.94a36.74,36.74,0,0,1,8.18.94,20.92,20.92,0,0,1,7.4,3.23,17.77,17.77,0,0,1,5.37,6,19.37,19.37,0,0,1,2.08,9.48v4a19.09,19.09,0,0,1-.83,5.84A16.56,16.56,0,0,1,288.84,36a15.19,15.19,0,0,1-3.28,3.39,20.83,20.83,0,0,1-4,2.35l11.57,33H281L271.27,45.3h-7.71V74.79H252v-73Zm11.57,21.36a12.67,12.67,0,0,0-.83-4.9,8.35,8.35,0,0,0-2.24-3.18,8,8,0,0,0-3.18-1.67,14.21,14.21,0,0,0-3.65-.47h-7.19V34.25h7.19a14.18,14.18,0,0,0,3.65-.47,8,8,0,0,0,3.18-1.67A8.91,8.91,0,0,0,279.66,29a11.64,11.64,0,0,0,.89-4.85Z"/><path class="cls-3" d="M338,13.1H324.84v61.7H313.27V13.1H300.14V1.84H338Z"/><path class="cls-3" d="M389.77,1.84v73H378.2V43.32H361.11V74.79H349.54v-73h11.57V32.06H378.2V1.84Z"/><path class="cls-3" d="M415,13V32.06h19V43.32H415V63.54h20V74.79H403.42v-73H435V13.1Z"/><path class="cls-3" d="M1,110.86a11.34,11.34,0,0,1,.77-4.44,8.16,8.16,0,0,1,2-2.88A6.89,6.89,0,0,1,6.42,102a10.44,10.44,0,0,1,3-.45,10.18,10.18,0,0,1,3,.45,7.16,7.16,0,0,1,2.7,1.53,8,8,0,0,1,2,2.86,11.32,11.32,0,0,1,.77,4.47v6.24H5.92v1.59a13.74,13.74,0,0,0,.24,2.8,4.46,4.46,0,0,0,.71,1.75,2.68,2.68,0,0,0,1.11.9,3.67,3.67,0,0,0,1.43.26,3.37,3.37,0,0,0,2.36-1q1-1,1.14-3.7h4.92a11,11,0,0,1-.77,4.39,7.3,7.3,0,0,1-4.68,4.26,10.18,10.18,0,0,1-3,.45,10.44,10.44,0,0,1-3-.45,6.87,6.87,0,0,1-2.7-1.53,8.15,8.15,0,0,1-2-2.88A11.33,11.33,0,0,1,1,119.54Zm11.91.64a9.87,9.87,0,0,0-.29-2.62,5.07,5.07,0,0,0-.77-1.67,2.49,2.49,0,0,0-1.11-.87,3.74,3.74,0,0,0-1.32-.24,3.89,3.89,0,0,0-1.38.24,2.38,2.38,0,0,0-1.08.85,4.72,4.72,0,0,0-.71,1.67A11.09,11.09,0,0,0,6,111.5v1.91h6.93Z"/><path class="cls-3" d="M29.31,118a23.52,23.52,0,0,0,.18,3.28,4.89,4.89,0,0,0,.64,2,2.33,2.33,0,0,0,1.16,1,5.3,5.3,0,0,0,1.83.26h.69v4.5h-2a11.37,11.37,0,0,1-3-.37,4.86,4.86,0,0,1-2.36-1.43,7.54,7.54,0,0,1-1.56-2.91,16.39,16.39,0,0,1-.58-4.82v-13H21.06V102h3.28v-8.1h5V102h4.5v4.45h-4.5Z"/><path class="cls-3" d="M114.51,91.42a36.74,36.74,0,0,1,8.18.94,20.92,20.92,0,0,1,7.4,3.23,17.77,17.77,0,0,1,5.37,6,19.37,19.37,0,0,1,2.08,9.48v4a19.09,19.09,0,0,1-.83,5.84,16.56,16.56,0,0,1-2.24,4.59,15.19,15.19,0,0,1-3.28,3.39,20.83,20.83,0,0,1-4,2.35l11.57,33H126.6l-9.69-29.49H109.2v29.49H97.63v-73Zm11.57,21.36a12.67,12.67,0,0,0-.83-4.9A8.35,8.35,0,0,0,123,104.7a8,8,0,0,0-3.18-1.67,14.21,14.21,0,0,0-3.65-.47H109v21.16h7.19a14.18,14.18,0,0,0,3.65-.47,8,8,0,0,0,3.18-1.67,8.91,8.91,0,0,0,2.29-3.13,11.64,11.64,0,0,0,.89-4.85Z"/><path class="cls-3" d="M168.19,91.42a36.73,36.73,0,0,1,8.18.94,20.92,20.92,0,0,1,7.4,3.23,17.77,17.77,0,0,1,5.37,6,19.37,19.37,0,0,1,2.08,9.48v4a19.12,19.12,0,0,1-.83,5.84,16.56,16.56,0,0,1-2.24,4.59,15.21,15.21,0,0,1-3.28,3.39,20.86,20.86,0,0,1-4,2.35l11.57,33H180.28l-9.69-29.49h-7.71v29.49H151.3v-73Zm11.57,21.36a12.65,12.65,0,0,0-.83-4.9,8.34,8.34,0,0,0-2.24-3.18A8,8,0,0,0,173.5,103a14.21,14.21,0,0,0-3.65-.47h-7.19v21.16h7.19a14.18,14.18,0,0,0,3.65-.47,8,8,0,0,0,3.18-1.67,8.91,8.91,0,0,0,2.29-3.13,11.63,11.63,0,0,0,.89-4.85Z"/><path class="cls-3" d="M205,91.31h12v73H205Z"/><path class="cls-3" d="M230.51,115.49a34.43,34.43,0,0,1,1.82-12,21.12,21.12,0,0,1,4.79-7.76,17.34,17.34,0,0,1,6.72-4.17A24.09,24.09,0,0,1,259,91.47a17.15,17.15,0,0,1,6.67,4.06,20.71,20.71,0,0,1,4.79,7.61,35,35,0,0,1,1.93,11.93v1.15H261.25v-.73q-.21-7.61-3-10.73a8.6,8.6,0,0,0-6.65-3.13,8.41,8.41,0,0,0-6.86,3.34q-2.67,3.34-2.67,11.46v22.72q0,8.13,2.67,11.46a8.4,8.4,0,0,0,6.86,3.34,9.85,9.85,0,0,0,3.77-.73,7.4,7.4,0,0,0,3.09-2.45,12.73,12.73,0,0,0,2-4.48,27.07,27.07,0,0,0,.73-6.83v-4.69h-9.38V123.51h20.64v16.36A34.81,34.81,0,0,1,270.68,152a21.13,21.13,0,0,1-4.79,7.76,16.78,16.78,0,0,1-6.72,4.12,24.88,24.88,0,0,1-7.61,1.2,24.23,24.23,0,0,1-7.71-1.25,17.32,17.32,0,0,1-6.72-4.17,21.11,21.11,0,0,1-4.79-7.76,34.43,34.43,0,0,1-1.82-12Z"/><path class="cls-3" d="M383,91.31v73H371.62l-20.74-46.48v46.48H339.63v-73H351l20.74,46.48V91.31Z"/><path class="cls-3" d="M405.8,141.65a16.53,16.53,0,0,0,.83,5.63,11,11,0,0,0,2.24,3.8,8.34,8.34,0,0,0,3.23,2.19,10.81,10.81,0,0,0,3.8.68q5,0,7.56-2.66t2.55-7.66a12.25,12.25,0,0,0-.78-4.69,7.77,7.77,0,0,0-2.35-3.13,13.42,13.42,0,0,0-3.91-2.08,54.21,54.21,0,0,0-5.37-1.56,56.86,56.86,0,0,1-5.52-1.72,18.59,18.59,0,0,1-5.68-3.33,17.77,17.77,0,0,1-4.43-5.84,20.59,20.59,0,0,1-1.77-9.12A26.42,26.42,0,0,1,398,101.84a18.54,18.54,0,0,1,4.64-6.72,17,17,0,0,1,6.51-3.65,25.63,25.63,0,0,1,7.4-1.09,23.73,23.73,0,0,1,7.24,1.15,16.45,16.45,0,0,1,6.46,3.91,20.16,20.16,0,0,1,4.64,7.3,31,31,0,0,1,1.77,11.2H425.5q0-6.36-2.66-9.33a8.47,8.47,0,0,0-12.51-.42q-2.45,2.55-2.45,7.24a8.25,8.25,0,0,0,1.15,4.64,9,9,0,0,0,2.87,2.76,12.83,12.83,0,0,0,3.65,1.51l3.7.89a31.07,31.07,0,0,1,8.65,3.18,20.14,20.14,0,0,1,5.73,4.74,17.39,17.39,0,0,1,3.18,6.1,25.32,25.32,0,0,1,1,7.14A28.59,28.59,0,0,1,436,153.17a18.69,18.69,0,0,1-4.74,7,17.57,17.57,0,0,1-6.93,3.8,29.5,29.5,0,0,1-8.23,1.15,26.45,26.45,0,0,1-7.66-1.15,17.47,17.47,0,0,1-6.83-3.91,20.13,20.13,0,0,1-4.9-7.24,29,29,0,0,1-1.88-11.15Z"/><path class="cls-3" d="M68.38,136.81c0-.83,0-1.6.11-2.35H57.09l5.76-27.24A33.9,33.9,0,0,1,58,91.31H56l-16,73H51.57L55.74,146h14A35.53,35.53,0,0,1,68.38,136.81Z"/><path class="cls-3" d="M310.58,136.81c0-.83,0-1.6.11-2.35h-11.4l5.76-27.24a33.9,33.9,0,0,1-4.82-15.91h-2l-16,73h11.57L297.94,146h14A35.53,35.53,0,0,1,310.58,136.81Z"/></svg>