<svg xmlns="http://www.w3.org/2000/svg" viewBox="0 0 140.48 205.66"><defs><style>.cls-1{fill:#c0ae66;}.cls-2{fill:#635b39;}.cls-3{fill:#bfd694;}.cls-4{fill:#c1e085;}.cls-5{fill:#a9ce9b;}.cls-6{fill:#9abf8c;}.cls-7{fill:none;stroke:#9abf8c;stroke-miterlimit:10;stroke-width:0.5px;}.cls-8{fill:#a6dd87;}.cls-9{fill:#92e567;}.cls-10{fill:#eae8ac;}.cls-11{fill:#f9f98f;}.cls-12{fill:#efec78;}</style></defs><title>logo cygeria étoiles</title><g id="Calque_2" data-name="Calque 2"><g id="Calque_1-2" data-name="Calque 1"><path class="cls-1" d="M24.69,183.66a23.73,23.73,0,0,1-1.3-8.78,35.94,35.94,0,0,1,.66-5.8A46.51,46.51,0,0,1,29.56,154q4-6.74,8.8-8.14a6.11,6.11,0,0,1,1.63-.17,5.12,5.12,0,0,1,4.57,2.65A6.12,6.12,0,0,1,45,151a14.44,14.44,0,0,1-.27,2.29,34.82,34.82,0,0,1-1.52,5.94c-.31.85-.61,1.54-.84,2a9.27,9.27,0,0,1-1.73,2.21,9,9,0,0,1-3.94,2.12,11.07,11.07,0,0,1-3.19.32,19.53,19.53,0,0,1-4.1-.56c-1.68-.37-2.31-.63-5.53-1.59-1.71-.52-1.73-.5-3.4-1-.43-.13-2.3-.69-4.87-1.51-2.08-.66-3.62-1.17-6.68-2.2-3.24-1.08-1.87-.64-4.39-1.49-1.1-.37-2.16-.86-3.27-1.18a5.24,5.24,0,0,1-.81-.32.67.67,0,0,1-.33-.19c-.06-.06-.15-.19-.11-.26s.42,0,.54,0c.73.22,1.83.56,3.18.93,1,.28,1.65.42,2.79.72.49.13,2.52.66,4.28,1.14,3.17.85,3.07.88,5.77,1.62,2.29.62,1.95.48,6.64,1.69,2.48.64,3.09.81,4.43,1.11a30.18,30.18,0,0,0,5.1.8,8.9,8.9,0,0,0,4.66-.7,14.2,14.2,0,0,0,1.49-1c.25-.18.54-.39.86-.67l.35-.33a4.92,4.92,0,0,0,.72-1.06c.39-.72,1-1.87,1.1-2.13h0l.22-.4a11.69,11.69,0,0,0,.49-1.29c.25-.79.4-1.39.41-1.43a16.77,16.77,0,0,0,.63-3.84,7,7,0,0,0-.06-1.17c-.42-1.33-1-2.06-1.6-2.19a9.33,9.33,0,0,0-1.3-.19,5.45,5.45,0,0,0-2.58.6q-4.56,2.52-7.55,9.29A41.71,41.71,0,0,0,27,168.91q-.59,4.91-.63,6.89a26.44,26.44,0,0,0,1.05,8.72q1.72,3.63,4.19,3.7,4.14.12,9.45-5.39a28.93,28.93,0,0,0,4.5-5.69,41.36,41.36,0,0,0,2.49-4.9A40.62,40.62,0,0,1,50,168.46a1.62,1.62,0,0,1,1.4-.9h.2a38.31,38.31,0,0,1-3.87,8.86,32.55,32.55,0,0,1-7.47,9.39,13.64,13.64,0,0,1-9,3.63C28.24,189.22,26,187.3,24.69,183.66Z"/><path class="cls-1" d="M48.37,192.05a2.73,2.73,0,0,1-.23-1.18,5.09,5.09,0,0,1,.49-1.94,20,20,0,0,1,5.23-6.67l2.64-2.4a38.39,38.39,0,0,0,1-7.61V171l0-.05q-4,5.3-7.13,5.41a1.56,1.56,0,0,1-1.41-.77,3.6,3.6,0,0,1-.46-2q.11-3.78,3-9.22s.05-.06.07-.06l.22.16a1.14,1.14,0,0,1,.59.43,1.28,1.28,0,0,1,.1.64,21.48,21.48,0,0,1-.8,4.51c-.35,1.47-.76,2.89-1.22,4.27a2.65,2.65,0,0,0-.12.57c0,.22.08.33.26.34a1.53,1.53,0,0,0,.65-.22,17.48,17.48,0,0,0,5.19-4.48,15.59,15.59,0,0,0,1.76-2.86c.25-.48.49-.72.71-.71s.51.36.63,1a20.55,20.55,0,0,1,.4,4.35,43.44,43.44,0,0,1-.45,4.86A27.29,27.29,0,0,0,66.21,169c.24-.59.49-.88.76-.87a.64.64,0,0,1,.37.16.51.51,0,0,1,.21.42,1.82,1.82,0,0,1-.29.8,24.57,24.57,0,0,1-5,6.55q-1.56,1.53-3.18,3l-.29,1.28a20.18,20.18,0,0,1-5.25,11A5.93,5.93,0,0,1,50.44,193l-.36,0A1.88,1.88,0,0,1,48.37,192.05Zm2.2-.25a20.8,20.8,0,0,0,5.48-10l-.18.12a25.27,25.27,0,0,0-6,7,4.58,4.58,0,0,0-.63,2.2.77.77,0,0,0,.84.76A1.73,1.73,0,0,0,50.57,191.8Z"/><path class="cls-1" d="M63.18,192.49a2.52,2.52,0,0,1-.25-1.19,5.33,5.33,0,0,1,.51-1.93,20,20,0,0,1,5.25-6.67c.6-.58,1.22-1.15,1.85-1.7l.79-.7a35,35,0,0,0,.61-3.57,7.57,7.57,0,0,1-4,2.42,4.07,4.07,0,0,1-.85.07,2.71,2.71,0,0,1-2.09-1,3,3,0,0,1-.79-1.77c0-.56,0-.94,0-1.12a9.7,9.7,0,0,1,.34-2.3,11.84,11.84,0,0,1,4-6.61,3.56,3.56,0,0,1,2.52-1,3.32,3.32,0,0,1,1.88.86,5,5,0,0,1,1.26,1.77,2.37,2.37,0,0,1,.14,1,.69.69,0,0,1-.44.65l-.14,0c-.24,0-.4-.25-.47-.73a.56.56,0,0,1,0-.12.19.19,0,0,0,0-.09A2.6,2.6,0,0,0,71,166.65,6.6,6.6,0,0,0,68.26,170a17.39,17.39,0,0,0-1.75,7.15,2.65,2.65,0,0,0,.12.9,2.8,2.8,0,0,0,.48.05,3.23,3.23,0,0,0,1.54-.34,8.09,8.09,0,0,0,3.52-3.07l0-.6v-.36a5.05,5.05,0,0,1,.25-1.49,1.63,1.63,0,0,1,1.44-1l.22,0a.51.51,0,0,1,.57.49,8.5,8.5,0,0,1,0,1.16,37.94,37.94,0,0,1-.47,4.82,28.34,28.34,0,0,0,6.86-8.3c.23-.5.49-.75.78-.74s.39.19.38.55a1.39,1.39,0,0,1-.08.54,14.43,14.43,0,0,1-2,3.23,52.38,52.38,0,0,1-6.28,6.57l-.12.54A42.91,42.91,0,0,1,72,186.4a14,14,0,0,1-3.52,5.32,6.08,6.08,0,0,1-3.2,1.7l-.4,0A1.85,1.85,0,0,1,63.18,192.49Zm2.22-.25a20.51,20.51,0,0,0,5.41-10l0,0-.07,0a25.15,25.15,0,0,0-6.11,7,4.55,4.55,0,0,0-.6,2.2.62.62,0,0,0,.13.42.64.64,0,0,0,.61.34H65A2.12,2.12,0,0,0,65.4,192.24Z"/><path class="cls-1" d="M81.49,178.74a6.51,6.51,0,0,1-1.67-4.7l0-.49A8.26,8.26,0,0,1,83.12,167a3.8,3.8,0,0,1,2.34-.75,3.24,3.24,0,0,1,2.07.89,3,3,0,0,1,1.06,2.39q-.06,2.1-2.62,4a21,21,0,0,1-3.52,2.29,4.42,4.42,0,0,0,2.28,3.33,3.35,3.35,0,0,0,1.07.22,4,4,0,0,0,1.66-.36,8.08,8.08,0,0,0,2.47-1.44,19.72,19.72,0,0,0,5.51-7.76c.21-.53.43-.79.69-.78s.56.17.57.48a1.76,1.76,0,0,1-.12.63l-.25.6-.09.17a23,23,0,0,1-3.67,5.63,10.54,10.54,0,0,1-6.15,3.94,5.49,5.49,0,0,1-.81,0A6.15,6.15,0,0,1,81.49,178.74Zm5-7.2a3.11,3.11,0,0,0,1-2,2,2,0,0,0-1.07-1.87,3.85,3.85,0,0,0-1.94.92,7.44,7.44,0,0,0-2.18,5.17v.85A16.14,16.14,0,0,0,86.52,171.54Z"/><path class="cls-1" d="M100.61,181.07a2.82,2.82,0,0,1-1.48-1.5,6.82,6.82,0,0,1-.29-2.14,10,10,0,0,1,.47-2.59,5.61,5.61,0,0,0,.34-1.76v-.55a5,5,0,0,0-2.23-3.18.37.37,0,0,0-.2-.09c-.12,0-.22.06-.33.2a1.14,1.14,0,0,1-.75.39c-.24,0-.36-.17-.36-.47a1.13,1.13,0,0,1,.3-.77.77.77,0,0,0,.13-.22.42.42,0,0,0,0-.14l-.35-.47a5.28,5.28,0,0,1-.77-3,9.85,9.85,0,0,1,1.45-4.9c.6-1.17,1.31-1.77,2.13-1.82a1.54,1.54,0,0,1,1.28.76,2.65,2.65,0,0,1,.28,1.27,7.34,7.34,0,0,1-.28,1.71,29.32,29.32,0,0,1-2.3,6.33,11.93,11.93,0,0,0,3,1.86,2.74,2.74,0,0,1,1.52,2.17v.14a7.23,7.23,0,0,1-.74,2.87,7.24,7.24,0,0,0-.73,2.73,6.48,6.48,0,0,0,.21,1.72c.09.41.29.62.59.63s.73-.27,1.3-.84a30.43,30.43,0,0,0,4.71-5.78,24.57,24.57,0,0,0,2.13-3.47c.18-.48.38-.72.61-.71a.57.57,0,0,1,.29.09.59.59,0,0,1,.31.58,3.32,3.32,0,0,1-.73,1.54,49.72,49.72,0,0,1-5.16,7.13,8.81,8.81,0,0,1-2.76,2.44,1.83,1.83,0,0,1-.74.14A1.68,1.68,0,0,1,100.61,181.07Zm-1.73-19.6a2.86,2.86,0,0,0,.23-1.22c0-.6-.07-.94-.26-1a7.17,7.17,0,0,0-1.13,3.07,14.24,14.24,0,0,0-.39,2.88l0,1A29.67,29.67,0,0,0,98.88,161.47Z"/><path class="cls-1" d="M110.06,180.1l-.43-.3a2.45,2.45,0,0,1-.9-1.73,7.64,7.64,0,0,1-.08-1.4,23.87,23.87,0,0,1,1.11-6.21,7.86,7.86,0,0,1,.73-1.38,6.47,6.47,0,0,1,.91-1.2c.44-.42.76-.63,1-.62s.27.18.26.54a16.26,16.26,0,0,1-.79,3.23,4.51,4.51,0,0,0-.12.47l-.19.63a28.78,28.78,0,0,0-1.09,5.17l0,.47a2.43,2.43,0,0,0,.26,1.33h0v0a.69.69,0,0,0,.51.24,2,2,0,0,0,1-.37,13.21,13.21,0,0,0,3.39-3.51,22.35,22.35,0,0,0,3.2-5.29c.12-.37.3-.55.55-.54a1,1,0,0,1,.27.06.53.53,0,0,1,.33.53,2.58,2.58,0,0,1-.4,1.11,21.67,21.67,0,0,1-1.11,1.94l-.07.08a24.33,24.33,0,0,1-4.88,6.12,3.57,3.57,0,0,1-2.55,1A1.9,1.9,0,0,1,110.06,180.1Z"/><path class="cls-1" d="M117.18,179.52a5.7,5.7,0,0,1-.6-2.74,6.82,6.82,0,0,1,.17-1.32,11.79,11.79,0,0,1,4.25-7.53,3.42,3.42,0,0,1,3.13-.75,4.94,4.94,0,0,1,2.63,3.19,1.17,1.17,0,0,1,.08.46c0,.27-.13.39-.38.39-.42,0-.76-.39-1-1.13a3,3,0,0,0-1.28-1.66,8.37,8.37,0,0,0-2.84,3.15A18.48,18.48,0,0,0,118.8,178a2.82,2.82,0,0,0-.13.78,2.76,2.76,0,0,0,.09.71v0a2.42,2.42,0,0,0,.74.14,3.68,3.68,0,0,0,2-.6,8.44,8.44,0,0,0,3-2.81s0-.06,0-.06a6.72,6.72,0,0,0,1.07-2.68c0-.59.21-.89.58-.87s.51.14.56.39a3,3,0,0,1,.07.69l0,.21c0,.37,0,.68,0,.92a7.82,7.82,0,0,0,.56,2.92c.32.72.75,1.1,1.28,1.11a3.84,3.84,0,0,0,2.47-1.21,21.72,21.72,0,0,0,3-3.36c1.39-1.79,2.08-2.68,2.62-3.46,1.05-1.54,1.83-2.88,2-3.25a14.69,14.69,0,0,0,1.13-2c.17-.36.29-.67.37-.88.06,0,.14-.06.19,0s0,.24,0,.32a14.62,14.62,0,0,1-1.51,3.77c-.85,1.42-.56,1.11-1.16,2s-1.31,2-2.29,3.36a27.41,27.41,0,0,1-2.38,3.1,11.42,11.42,0,0,1-4.47,2.74l-.51-.05a4.26,4.26,0,0,1-2-.55,2.89,2.89,0,0,1-1.34-1.66,7.46,7.46,0,0,1-4.83,3,3.62,3.62,0,0,1-.57,0A2.75,2.75,0,0,1,117.18,179.52Z"/><path class="cls-2" d="M25.32,204.49a3.08,3.08,0,0,0,1.56.44c.89,0,1.41-.47,1.41-1.15s-.36-1-1.27-1.34c-1.1-.39-1.78-1-1.78-1.91a1.94,1.94,0,0,1,2.18-1.83,3.06,3.06,0,0,1,1.49.33l-.24.71a2.68,2.68,0,0,0-1.28-.32c-.92,0-1.27.55-1.27,1,0,.63.41.94,1.34,1.3,1.14.44,1.72,1,1.72,2s-.77,1.94-2.36,1.94a3.48,3.48,0,0,1-1.72-.43Z"/><path class="cls-2" d="M32.21,203.43l-.7,2.12h-.9l2.29-6.74H34l2.3,6.74h-.93l-.72-2.12Zm2.21-.68-.66-1.94c-.15-.44-.25-.84-.35-1.23h0c-.1.4-.21.81-.34,1.22l-.66,1.95Z"/><path class="cls-2" d="M38.94,205.55l-2.2-6.74h.94l1,3.32c.29.91.54,1.73.72,2.52h0c.19-.78.47-1.63.77-2.51l1.14-3.33h.93l-2.41,6.74Z"/><path class="cls-2" d="M47.28,202.39H44.66v2.43h2.92v.73H43.79v-6.74h3.64v.73H44.66v2.13h2.62Z"/><path class="cls-2" d="M50.33,198.81v4c0,1.51.67,2.15,1.57,2.15s1.64-.66,1.64-2.15v-4h.88v3.93c0,2.07-1.09,2.92-2.55,2.92s-2.42-.79-2.42-2.88v-4Z"/><path class="cls-2" d="M56.68,198.9a9.06,9.06,0,0,1,1.67-.14,2.76,2.76,0,0,1,1.95.55,1.68,1.68,0,0,1,.53,1.28,1.77,1.77,0,0,1-1.27,1.72v0a1.68,1.68,0,0,1,1,1.36,10.73,10.73,0,0,0,.52,1.85h-.9a8.73,8.73,0,0,1-.45-1.61c-.2-.93-.56-1.28-1.35-1.31h-.82v2.92h-.87Zm.87,3.07h.89c.93,0,1.52-.51,1.52-1.28s-.63-1.25-1.55-1.26a3.58,3.58,0,0,0-.86.08Z"/><path class="cls-2" d="M62.69,204.49a3.08,3.08,0,0,0,1.56.44c.89,0,1.41-.47,1.41-1.15s-.36-1-1.27-1.34c-1.1-.39-1.78-1-1.78-1.91a1.94,1.94,0,0,1,2.18-1.83,3.06,3.06,0,0,1,1.49.33l-.24.71a2.68,2.68,0,0,0-1.28-.32c-.92,0-1.27.55-1.27,1,0,.63.41.94,1.34,1.3,1.14.44,1.72,1,1.72,2s-.77,1.94-2.36,1.94a3.48,3.48,0,0,1-1.72-.43Z"/><path class="cls-2" d="M74.85,202.39H72.23v2.43h2.92v.73H71.36v-6.74H75v.73H72.23v2.13h2.62Z"/><path class="cls-2" d="M78.47,199.55h-2v-.74h5v.74H79.35v6h-.88Z"/><path class="cls-2" d="M85.78,198.9a8.43,8.43,0,0,1,1.59-.14,2.79,2.79,0,0,1,1.85.49,1.41,1.41,0,0,1,.56,1.19,1.6,1.6,0,0,1-1.14,1.48v0A1.74,1.74,0,0,1,90,203.63a1.82,1.82,0,0,1-.57,1.35,3.39,3.39,0,0,1-2.33.63,10.17,10.17,0,0,1-1.35-.08Zm.87,2.76h.79c.92,0,1.46-.48,1.46-1.13s-.6-1.1-1.48-1.1a3.73,3.73,0,0,0-.77.06Zm0,3.23a4.65,4.65,0,0,0,.73,0c.9,0,1.73-.33,1.73-1.31s-.79-1.3-1.74-1.3h-.72Z"/><path class="cls-2" d="M92.82,198.81v6.74H92v-6.74Z"/><path class="cls-2" d="M98.58,202.39H96v2.43h2.92v.73H95.09v-6.74h3.64v.73H96v2.13h2.62Z"/><path class="cls-2" d="M100.76,205.55v-6.74h.95l2.16,3.41a19.08,19.08,0,0,1,1.21,2.19h0c-.08-.9-.1-1.72-.1-2.77v-2.82h.82v6.74h-.88l-2.14-3.42a21.39,21.39,0,0,1-1.26-2.25h0c0,.85.07,1.66.07,2.78v2.88Z"/><path class="cls-2" d="M110.1,202.52v.65h-2.47v-.65Z"/><path class="cls-2" d="M115.4,202.39h-2.62v2.43h2.92v.73h-3.79v-6.74h3.64v.73h-2.77v2.13h2.62Zm-1.35-5.08,1,1.14h-.74l-.64-.69h0l-.63.69h-.72l1-1.14Z"/><path class="cls-2" d="M119,199.55h-2v-.74h5v.74H119.9v6H119Z"/><path class="cls-2" d="M123.46,198.9a9.06,9.06,0,0,1,1.67-.14,2.76,2.76,0,0,1,2,.55,1.68,1.68,0,0,1,.53,1.28,1.77,1.77,0,0,1-1.27,1.72v0a1.68,1.68,0,0,1,1,1.36,10.73,10.73,0,0,0,.52,1.85H127a8.73,8.73,0,0,1-.45-1.61c-.2-.93-.56-1.28-1.35-1.31h-.82v2.92h-.87Zm.87,3.07h.89c.93,0,1.52-.51,1.52-1.28s-.63-1.25-1.55-1.26a3.58,3.58,0,0,0-.86.08Z"/><path class="cls-2" d="M133.08,202.39h-2.62v2.43h2.92v.73h-3.79v-6.74h3.64v.73h-2.77v2.13h2.62Z"/><path class="cls-3" d="M97.28,87.57c.29-1.36,1.59-6.61,6.24-9.35A12.51,12.51,0,0,1,111,76.31c2.24.24,3.42,1.17,5.86.51,1.65-.45,2.73-1.31,3-.9s-1.51,2.17-2.81,5.22-.72,4.33-1.57,7.38a17.83,17.83,0,0,1-5,8.2,15.26,15.26,0,0,1-4.31,2.63,15.84,15.84,0,0,1-10.43-.48"/><path class="cls-4" d="M97.12,86.7c.29-1.37,1.58-6.62,6.24-9.36a12.53,12.53,0,0,1,7.49-1.9c2.24.24,3.42,1.17,5.86.51,1.65-.45,2.73-1.31,3-.9s-1.51,2.17-2.81,5.22-.72,4.33-1.57,7.38a17.83,17.83,0,0,1-5,8.2,15.26,15.26,0,0,1-4.31,2.63A15.84,15.84,0,0,1,95.51,98"/><path class="cls-5" d="M94.66,101.32c-4,2.34-9.72-1.69-10.21-2-4.43-3.2-5.68-8.64-6.13-10.46-1.17-4.73.18-5.45-1.27-10.47-1.13-3.89-2.84-6.54-2.3-6.9s1.69,1.81,4.59,3.32,4,.7,7.66,1.79a15.71,15.71,0,0,1,7.15,3.83c3.06,3.15,3.4,7.24,3.58,9.45C98,92.65,98.48,99.08,94.66,101.32Z"/><path class="cls-6" d="M101.83,118.41A13.63,13.63,0,0,1,99,121.07a15.75,15.75,0,0,1-3.06,1.66,31,31,0,0,1-4.15,1.4c-4.09,1.14-4.64.92-5,1.54-.77,1.54,1.62,4.82,4.6,6.11,3.29,1.42,4.76-.86,12.76-2.55,7.16-1.51,11.9-.93,15.83-4.57.28-.26.63-.62,1.34-1.33,4.48-4.52,4.93-5.73,6.83-6.81s4.93-1.94,5.62-1c1.6,2.13-9.44,14.62-23,23.4-4.43,2.87-8.1,5.26-13.78,7.12a52,52,0,0,1-31.15,0,63.62,63.62,0,0,1-10.22-4.58c-5.68-2.93-11-5.65-16.59-10.81a60.67,60.67,0,0,1-12-15.64,65.66,65.66,0,0,1-5.49-14,70.36,70.36,0,0,1-3-16.9,65.36,65.36,0,0,1,1.94-19.35,60.37,60.37,0,0,1,12.64-24A49.86,49.86,0,0,1,45,30.54c8-4.92,15.22-6.15,20.94-7.12a79.82,79.82,0,0,1,20.93-.51c14.77,1.46,26.58,6.35,26.39,7.12S103.31,26.89,89,27.74a80.61,80.61,0,0,0-12.15,1.57,53.94,53.94,0,0,0-16.4,6.11c-3.41,2-12.32,7.46-17.36,18.31-3.53,7.6-3.6,14.68-3.67,20.61a65,65,0,0,0,1,12.21c.06.31.6,3.18,1.45,6,3.77,12.7,14.08,26.61,20.46,26.16.2,0,1-.09,1.89-.23,3.08-.48,4.39-1.2,7.35-1.88a31.63,31.63,0,0,1,3.49-.61h0s8.27-1.74,22-1.53c1.61,0,5.77.12,6.12,1.53C103.31,116.55,102.82,117.17,101.83,118.41Z"/><path class="cls-7" d="M94.84,106a50.85,50.85,0,0,1,2.56-8c1.45-3.52,2.6-6.3,5.14-9.07a21.44,21.44,0,0,1,6.38-4.72"/><path class="cls-8" d="M94.08,101.32c-4,2.34-9.73-1.69-10.22-2-4.42-3.2-5.67-8.64-6.12-10.46-1.17-4.73.18-5.45-1.28-10.47-1.13-3.89-2.83-6.54-2.3-6.9s1.69,1.81,4.6,3.32,4,.7,7.66,1.79a15.76,15.76,0,0,1,7.15,3.83c3.06,3.15,3.39,7.24,3.57,9.45C97.37,92.65,97.9,99.08,94.08,101.32Z"/><circle class="cls-1" cx="95.67" cy="120.02" r="14.36"/><path class="cls-7" d="M82.9,83.39a23.77,23.77,0,0,1,6.25,6.26,32.92,32.92,0,0,1,3.41,7.27,78.78,78.78,0,0,1,2.56,7.92"/><path class="cls-9" d="M101.83,119.8A13.87,13.87,0,0,1,99,122.51a15.85,15.85,0,0,1-3.06,1.67,28.56,28.56,0,0,1-4.15,1.42c-4.09,1.16-4.64.94-5,1.57-.77,1.56,1.62,4.89,4.6,6.2,3.29,1.44,4.76-.87,12.76-2.58,7.16-1.54,11.9-1,15.83-4.65.28-.26.63-.62,1.34-1.34,4.48-4.59,4.93-5.82,6.83-6.92s4.93-2,5.62-1c1.6,2.16-9.44,14.84-23,23.74-4.43,2.92-8.1,5.33-13.78,7.23a51.5,51.5,0,0,1-31.15,0,63.52,63.52,0,0,1-10.22-4.65c-5.68-3-11-5.73-16.59-11a61.59,61.59,0,0,1-12-15.88,67.13,67.13,0,0,1-5.49-14.19,72.19,72.19,0,0,1-3-17.14,67.15,67.15,0,0,1,1.94-19.63A61.4,61.4,0,0,1,33.22,41,50.1,50.1,0,0,1,45,30.66c8-5,15.22-6.24,20.94-7.23a79.15,79.15,0,0,1,20.93-.52c14.77,1.49,26.58,6.44,26.39,7.23S103.31,27,89,27.82c-6.07.36-15.53,1.05-25.66,7A47.86,47.86,0,0,0,44.45,54.4c-6.17,12.07-5.22,23.29-4.72,28.39a56.73,56.73,0,0,0,5.87,19.87c3.41,6.73,8.22,16.22,16.47,17.67,2.91.52,2.28-.67,13-3,0,0,8.25-1.76,22-1.55,1.61,0,5.77.12,6.12,1.55C103.31,117.92,102.82,118.55,101.83,119.8Z"/><path class="cls-10" d="M29.68,11.47,25.49,9.16l1.9.62,2.87.54,2.71,0,2.76-.79,1.57-.86,1.55-2.47,1.53-3.1L41.11,0c-.24,1.73-.49,3.46-.73,5.19l.1,2.73a10,10,0,0,0,.9,2.61,9.62,9.62,0,0,0,1.49,2.14l2.3,1.85,2.18,1.26L51,17.05l-3.86-.82-1.92-.12a15.14,15.14,0,0,0-2,.1,14.08,14.08,0,0,0-2.41.53A9.37,9.37,0,0,0,38,19.06c-.31.47-.63,1-.94,1.53s-.61,1.17-.86,1.71l-.33,1.31h0c.06-.06-.9,3.51-.9,3.51l.57-3.86.1-2,.06-1.72a6.49,6.49,0,0,0-.58-2.85,16.58,16.58,0,0,0-1.35-2.19,10,10,0,0,0-1-1.06A11.62,11.62,0,0,0,29.68,11.47Z"/><path class="cls-11" d="M112.32,44.48l-3.8-.75h1.65l2.4-.28,2.18-.68,2.07-1.27,1.11-1,.79-2.26.65-2.74,0-2.53.37,4.15.58,2.06a7,7,0,0,0,1.21,1.78,7.11,7.11,0,0,0,1.59,1.27l2.2.86,2,.43,3.18.09-3.25.31-1.57.37a14,14,0,0,0-1.63.57,13.3,13.3,0,0,0-1.84,1,8.88,8.88,0,0,0-1.07,1.2,9.79,9.79,0,0,0-.76,1.26c-.16.42-.32.89-.46,1.39a14.66,14.66,0,0,0-.38,1.52c0,.62,0,1.08,0,1.08h0c0-.07-.07,2.9-.07,2.9l-.25-3.09-.28-1.51-.27-1.34a4.7,4.7,0,0,0-1-2,11.73,11.73,0,0,0-1.49-1.35,8.05,8.05,0,0,0-1-.56A9.24,9.24,0,0,0,112.32,44.48Z"/><path class="cls-12" d="M61.35,63.71l-2.07,0,.87-.19,1.25-.42,1.1-.61,1-.9L64,61l.24-1.28.13-1.51-.19-1.32L64.71,59l.47,1a3.36,3.36,0,0,0,.78.79,3.45,3.45,0,0,0,1,.49l1.23.19h1.08l1.69-.32-1.7.53-.8.38a8.8,8.8,0,0,0-.82.49,7.26,7.26,0,0,0-.89.73,4.9,4.9,0,0,0-.47.75,4.17,4.17,0,0,0-.3.75,7.82,7.82,0,0,0-.14.78c0,.3-.07.58-.08.84l.07.57h0s.19,1.53.19,1.53l-.38-1.59-.27-.76-.24-.66a2.34,2.34,0,0,0-.69-1,5.48,5.48,0,0,0-.9-.53,4,4,0,0,0-.58-.18A4.84,4.84,0,0,0,61.35,63.71Z"/><path class="cls-1" d="M110.17,160.12l-1.5-.6.66.13,1,.06.91-.12.9-.38.5-.35.43-.89.4-1.09.13-1.06,0,1.76.14.91a2.78,2.78,0,0,0,.4.83,3.37,3.37,0,0,0,.58.66l.85.52.78.33,1.28.27-1.33-.11-.65,0a4.89,4.89,0,0,0-1.48.39,2.59,2.59,0,0,0-.49.43,2.76,2.76,0,0,0-.37.46,5.64,5.64,0,0,0-.26.55c-.09.21-.17.42-.23.61s-.06.45-.06.45h0s-.17,1.21-.17,1.21l0-1.31,0-.66-.05-.58a2.05,2.05,0,0,0-.3-.92,5.17,5.17,0,0,0-.54-.68,4.23,4.23,0,0,0-.38-.31A3.87,3.87,0,0,0,110.17,160.12Z"/><path class="cls-1" d="M89.1,158.33,82.83,164l-.14-1.42,5.14-6.09Z"/></g></g></svg>