<?xml version="1.0" standalone="no"?>
<!DOCTYPE svg PUBLIC "-//W3C//DTD SVG 20010904//EN"
 "http://www.w3.org/TR/2001/REC-SVG-20010904/DTD/svg10.dtd">
<svg version="1.0" xmlns="http://www.w3.org/2000/svg"
 width="1000.000000pt" height="1000.000000pt" viewBox="0 0 1000.000000 1000.000000"
 preserveAspectRatio="xMidYMid meet">
<metadata>
Created by potrace 1.11, written by Peter Selinger 2001-2013
</metadata>
<g transform="translate(0.000000,1000.000000) scale(0.100000,-0.100000)"
fill="#000000" stroke="none">
<path d="M4992 9420 c-6 -14 -848 -2003 -1872 -4420 -1025 -2417 -1869 -4410
-1877 -4427 l-13 -33 653 0 654 0 1233 3066 c1097 2726 1235 3063 1245 3042 7
-12 562 -1392 1235 -3065 l1224 -3043 653 0 652 0 -29 67 c-15 38 -859 2030
-1875 4428 -1016 2398 -1853 4371 -1860 4385 l-13 25 -10 -25z"/>
</g>
</svg>
